<?xml version="1.0" encoding="UTF-8"?> <svg xmlns="http://www.w3.org/2000/svg" width="149.556" height="57.045"><path d="M5.753 11.368A28.534 28.534 0 0130.376.055a9.842 9.842 0 011.729.163 1.515 1.515 0 01.359.133 2.18 2.18 0 01.487 3.211 2.265 2.265 0 01-1.422.868c-.1.009-.2.023-.3.034a28.549 28.549 0 00-16.867 48.872 28.523 28.523 0 01-8.609-41.968" fill="#004d97"></path><path d="M17.845 19.101q-.352.421-.686.864t-.641.9a28.576 28.576 0 00-.9 31.239.9.9 0 01-1.224 1.253l-.032-.018a28.557 28.557 0 0134.1-45.257.914.914 0 01-.876 1.538 28.574 28.574 0 00-29.748 9.482" fill="#004d97" opacity=".5"></path><path d="M17.224 47.762a28.7 28.7 0 01-2.057-11.456c0-.132.005-.264.011-.4a.044.044 0 010-.015.868.868 0 011.39-.438.684.684 0 01.216.34 3.817 3.817 0 01.09.465 21.414 21.414 0 0023.871 17.755l.045-.006a.869.869 0 01.9 1.209v.008a.738.738 0 01-.451.377l-.427.136a28.7 28.7 0 01-11.5 1.146 14.712 14.712 0 01-12.09-9.124" fill="#004d97" opacity=".25"></path><g fill="#0c1329"><path d="M90.507 40.145a2.58 2.58 0 10-2.58-2.58 2.58 2.58 0 002.58 2.58M44.652 39.436V29.377c0-3.76-1.254-6.757-5.473-6.757a8.2 8.2 0 00-4.617 1.131v-6.329a.613.613 0 00-.611-.611h-2.813a.613.613 0 00-.611.611v22.013a.64.64 0 00.611.642h2.813a.64.64 0 00.611-.642v-12.35a7.946 7.946 0 013.547-1.04c2.048 0 2.507.673 2.507 3.332v10.059a.64.64 0 00.612.642h2.813a.64.64 0 00.611-.642M57.691 29.887h-6.432v-.121c0-2.4 1.366-3.732 3.247-3.732s3.186 1.365 3.186 3.732zm4.035 2.094v-1.7c0-4.521-2.549-7.707-7.221-7.707-4.642 0-7.282 2.973-7.282 7.707v2.245c0 5.977 4.309 7.616 7.343 7.616a26.973 26.973 0 005.886-.516c.546-.091.637-.3.637-.789v-2c0-.3-.243-.455-.546-.455h-.091c-1.274.121-3.368.3-5.583.3-2.913 0-3.641-2.094-3.641-3.853v-.091h9.891c.425 0 .607-.273.607-.759M89.668 25.397V23.19a.615.615 0 00-.613-.613h-.007a33.89 33.89 0 00-1.281-.021 23.218 23.218 0 00-2.942.215l-.006.006a25.741 25.741 0 00-3.212.6c-.7.184-.828.368-.828.828v15.233a.642.642 0 00.613.644h2.82a.642.642 0 00.613-.644V27.113a8.677 8.677 0 014.23-1.1.615.615 0 00.613-.613M107.252 38.961v-1.974c0-.3-.243-.455-.546-.455h-.091a26.055 26.055 0 01-3.914.213c-1.426 0-2.913-.819-2.913-3.975v-2.822c0-3.155 1.487-3.975 2.913-3.975a26.1 26.1 0 013.914.212h.091c.3 0 .546-.152.546-.455v-1.972c0-.485-.121-.668-.637-.789a16.645 16.645 0 00-3.914-.394c-3.944 0-6.918 2.427-6.918 7.373v2.822c0 4.946 2.973 7.373 6.918 7.373a16.633 16.633 0 003.914-.394c.516-.121.637-.3.637-.789M120.116 32.587c0 2.488-1.123 4.1-3.246 4.1s-3.247-1.608-3.247-4.1V30.13c0-2.488 1.123-4.1 3.247-4.1s3.246 1.608 3.246 4.1zm4.005 0V30.13c0-4.339-2.488-7.555-7.252-7.555s-7.252 3.216-7.252 7.555v2.457c0 4.339 2.488 7.555 7.252 7.555s7.252-3.216 7.252-7.555M149.557 39.435V29.014c0-3.586-.919-6.437-5.088-6.437a9.577 9.577 0 00-5.057 1.379.666.666 0 00-.059-.067 3.408 3.408 0 00-1.314-.928c-.045-.019-.1-.031-.145-.048a5.086 5.086 0 00-.843-.234l-.072-.01a6.9 6.9 0 00-.7-.1c-.245-.02-.741-.009-.741-.009-.093 0-.175.007-.265.009-.24 0-.481-.007-.745-.007a23.214 23.214 0 00-2.942.215l-.006.006a25.714 25.714 0 00-3.212.6c-.705.184-.828.368-.828.828v15.224a.642.642 0 00.613.644h2.834a.642.642 0 00.613-.644V27.052a6.8 6.8 0 012.82-1.012c1.716 0 2.115.613 2.115 2.973v10.422a.642.642 0 00.613.644h2.82a.642.642 0 00.613-.644V29.014a16.77 16.77 0 00-.123-2.207 6.7 6.7 0 012.85-.766c1.717 0 2.207.613 2.207 2.973v10.421a.642.642 0 00.613.644h2.82a.642.642 0 00.613-.644M71.26 32.359h1.862v4.3a17.564 17.564 0 01-2.878.212h-.053a3.235 3.235 0 01-1.855-.507 2.016 2.016 0 01-.421-1.44V34.8c0-1.7.6-2.439 3.343-2.439m5.867 6.178V28.347c0-3.894-2.345-5.807-6.62-5.807a25.738 25.738 0 00-5.026.485c-.391.092-.571.3-.571.638v1.944c0 .425.24.517.541.517h.15a46.806 46.806 0 014.906-.244c1.777 0 2.651.487 2.651 2.466v1.339h-1.9c-5.237 0-7.343 1.792-7.343 5.26v.122c0 3.086 1.529 4.4 3.35 4.863.031.008.068.014.1.022a7.652 7.652 0 001.754.192c.044 0 .086-.01.13-.011.287.007.6.011.958.011a25.859 25.859 0 006.1-.789c.7-.182.819-.364.819-.819"></path></g></svg> 